solid ahmed_body
  facet normal 0.000000 0.000000 1.000000
    outer loop
      vertex 0.000000 -0.194500 0.050000
      vertex 0.900000 -0.194500 0.050000
      vertex 0.900000 0.194500 0.050000
    endloop
  endfacet
  facet normal 0.000000 0.000000 1.000000
    outer loop
      vertex 0.000000 -0.194500 0.050000
      vertex 0.900000 0.194500 0.050000
      vertex 0.000000 0.194500 0.050000
    endloop
  endfacet
  facet normal 0.000000 0.000000 1.000000
    outer loop
      vertex 0.000000 -0.194500 0.338000
      vertex 0.627043 -0.194500 0.338000
      vertex 0.627043 0.194500 0.338000
    endloop
  endfacet
  facet normal 0.000000 0.000000 1.000000
    outer loop
      vertex 0.000000 -0.194500 0.338000
      vertex 0.627043 0.194500 0.338000
      vertex 0.000000 0.194500 0.338000
    endloop
  endfacet
  facet normal 1.000000 0.000000 0.000000
    outer loop
      vertex 0.000000 -0.194500 0.050000
      vertex 0.000000 0.194500 0.050000
      vertex 0.000000 0.194500 0.338000
    endloop
  endfacet
  facet normal 1.000000 0.000000 0.000000
    outer loop
      vertex 0.000000 -0.194500 0.050000
      vertex 0.000000 0.194500 0.338000
      vertex 0.000000 -0.194500 0.338000
    endloop
  endfacet
  facet normal 0.000000 1.000000 0.000000
    outer loop
      vertex 0.000000 -0.194500 0.050000
      vertex 0.000000 -0.194500 0.338000
      vertex 0.627043 -0.194500 0.338000
    endloop
  endfacet
  facet normal 0.000000 1.000000 0.000000
    outer loop
      vertex 0.000000 -0.194500 0.050000
      vertex 0.627043 -0.194500 0.338000
      vertex 0.627043 -0.194500 0.050000
    endloop
  endfacet
  facet normal -0.358502 0.933529 0.000000
    outer loop
      vertex 0.627043 -0.194500 0.338000
      vertex 0.900000 -0.089677 0.246140
      vertex 0.900000 -0.089677 0.050000
    endloop
  endfacet
  facet normal -0.358502 0.933529 0.000000
    outer loop
      vertex 0.627043 -0.194500 0.338000
      vertex 0.900000 -0.089677 0.050000
      vertex 0.627043 -0.194500 0.050000
    endloop
  endfacet
  facet normal 0.000000 -1.000000 0.000000
    outer loop
      vertex 0.000000 0.194500 0.050000
      vertex 0.627043 0.194500 0.050000
      vertex 0.627043 0.194500 0.338000
    endloop
  endfacet
  facet normal 0.000000 -1.000000 0.000000
    outer loop
      vertex 0.000000 0.194500 0.050000
      vertex 0.627043 0.194500 0.338000
      vertex 0.000000 0.194500 0.338000
    endloop
  endfacet
  facet normal -0.358502 -0.933529 0.000000
    outer loop
      vertex 0.627043 0.194500 0.050000
      vertex 0.900000 0.089677 0.050000
      vertex 0.900000 0.089677 0.246140
    endloop
  endfacet
  facet normal -0.358502 -0.933529 0.000000
    outer loop
      vertex 0.627043 0.194500 0.050000
      vertex 0.900000 0.089677 0.246140
      vertex 0.627043 0.194500 0.338000
    endloop
  endfacet
  facet normal -0.318959 0.000000 -0.947768
    outer loop
      vertex 0.627043 -0.194500 0.338000
      vertex 0.627043 0.194500 0.338000
      vertex 0.900000 0.089677 0.246140
    endloop
  endfacet
  facet normal -0.318959 0.000000 -0.947768
    outer loop
      vertex 0.627043 -0.194500 0.338000
      vertex 0.900000 0.089677 0.246140
      vertex 0.900000 -0.089677 0.246140
    endloop
  endfacet
  facet normal 1.000000 0.000000 0.000000
    outer loop
      vertex 0.900000 -0.089677 0.050000
      vertex 0.900000 0.089677 0.050000
      vertex 0.900000 0.089677 0.246140
    endloop
  endfacet
  facet normal 1.000000 0.000000 0.000000
    outer loop
      vertex 0.900000 -0.089677 0.050000
      vertex 0.900000 0.089677 0.246140
      vertex 0.900000 -0.089677 0.246140
    endloop
  endfacet
endsolid ahmed_body